<?xml version="1.0" encoding="UTF-8"?>
<svg width="2190px" height="472px" viewBox="0 0 2190 472" version="1.1" xmlns="http://www.w3.org/2000/svg" xmlns:xlink="http://www.w3.org/1999/xlink">
    <!-- Generator: Sketch 50.2 (55047) - http://www.bohemiancoding.com/sketch -->
    <title>rgb_logo_Adaptavist_orange</title>
    <desc>Created with Sketch.</desc>
    <defs></defs>
    <g id="Page-1" stroke="none" stroke-width="1" fill="none" fill-rule="evenodd">
        <g id="Adaptavist-Winter-Conference" transform="translate(-40.000000, -1254.000000)">
            <g id="rgb_logo_Adaptavist_orange" transform="translate(40.000000, 1254.000000)">
                <path d="M726.541,335 L705.721,271.846 L619.318,271.846 L598.498,335 L552.347,335 L639.097,88.63 L685.942,88.63 L772.692,335 L726.541,335 Z M663.04,131.311 L662.346,131.311 C662.346,131.311 656.794,155.601 651.936,169.481 L630.075,235.411 L694.617,235.411 L672.756,169.481 C668.245,155.601 663.04,131.311 663.04,131.311 Z M782.084,246.515 C782.084,190.301 815.396,153.866 862.241,153.866 C901.105,153.866 913.25,176.421 913.25,176.421 L913.944,176.421 C913.944,176.421 913.597,171.91 913.597,166.358 L913.597,88.63 L957.666,88.63 L957.666,335 L916.026,335 L916.026,320.426 C916.026,313.833 916.72,308.975 916.72,308.975 L916.026,308.975 C916.026,308.975 901.105,339.164 860.506,339.164 C812.62,339.164 782.084,301.341 782.084,246.515 Z M826.5,246.515 C826.5,280.174 844.544,302.035 870.569,302.035 C893.471,302.035 914.985,285.379 914.985,246.168 C914.985,218.755 900.411,191.689 870.916,191.689 C846.626,191.689 826.5,211.468 826.5,246.515 Z M988.225,283.991 C988.225,227.777 1064.218,223.96 1093.019,223.96 L1098.918,223.96 L1098.918,221.531 C1098.918,198.282 1084.344,190.301 1064.912,190.301 C1039.581,190.301 1016.332,207.304 1016.332,207.304 L999.676,175.727 C999.676,175.727 1027.089,153.866 1069.076,153.866 C1115.574,153.866 1142.64,179.544 1142.64,224.307 L1142.64,335 L1102.041,335 L1102.041,320.426 C1102.041,313.486 1102.735,307.934 1102.735,307.934 L1102.041,307.934 C1102.388,307.934 1088.508,339.164 1048.256,339.164 C1016.679,339.164 988.225,319.385 988.225,283.991 Z M1032.641,281.909 C1032.641,293.707 1041.316,304.811 1059.36,304.811 C1082.609,304.811 1099.265,279.827 1099.265,258.313 L1099.265,254.149 L1091.631,254.149 C1069.076,254.149 1032.641,257.272 1032.641,281.909 Z M1175.344,404.4 L1175.344,158.03 L1215.596,158.03 L1215.596,170.869 C1215.596,177.462 1214.902,183.014 1214.902,183.014 L1215.596,183.014 C1215.596,183.014 1230.864,153.866 1272.504,153.866 C1320.39,153.866 1350.926,191.689 1350.926,246.515 C1350.926,302.729 1316.573,339.164 1270.075,339.164 C1235.028,339.164 1219.413,314.874 1219.413,314.874 L1218.719,314.874 C1218.719,314.874 1219.413,321.12 1219.413,330.142 L1219.413,404.4 L1175.344,404.4 Z M1218.025,247.556 C1218.025,274.969 1232.946,302.035 1262.094,302.035 C1286.384,302.035 1306.51,282.256 1306.51,247.209 C1306.51,213.55 1288.466,191.689 1262.441,191.689 C1239.539,191.689 1218.025,208.345 1218.025,247.556 Z M1391.895,270.111 L1391.895,195.853 L1368.993,195.853 L1368.993,160.806 L1392.936,160.806 L1392.936,109.797 L1435.964,109.797 L1435.964,160.806 L1476.216,160.806 L1476.216,195.853 L1435.964,195.853 L1435.964,264.559 C1435.964,293.707 1458.866,297.871 1471.011,297.871 C1475.869,297.871 1478.992,297.177 1478.992,297.177 L1478.992,335.694 C1478.992,335.694 1473.787,336.735 1465.459,336.735 C1440.822,336.735 1391.895,329.448 1391.895,270.111 Z M1497.059,283.991 C1497.059,227.777 1573.052,223.96 1601.853,223.96 L1607.752,223.96 L1607.752,221.531 C1607.752,198.282 1593.178,190.301 1573.746,190.301 C1548.415,190.301 1525.166,207.304 1525.166,207.304 L1508.51,175.727 C1508.51,175.727 1535.923,153.866 1577.91,153.866 C1624.408,153.866 1651.474,179.544 1651.474,224.307 L1651.474,335 L1610.875,335 L1610.875,320.426 C1610.875,313.486 1611.569,307.934 1611.569,307.934 L1610.875,307.934 C1611.222,307.934 1597.342,339.164 1557.09,339.164 C1525.513,339.164 1497.059,319.385 1497.059,283.991 Z M1541.475,281.909 C1541.475,293.707 1550.15,304.811 1568.194,304.811 C1591.443,304.811 1608.099,279.827 1608.099,258.313 L1608.099,254.149 L1600.465,254.149 C1577.91,254.149 1541.475,257.272 1541.475,281.909 Z M1724.083,335 L1659.888,158.03 L1706.386,158.03 L1743.168,267.682 C1746.638,278.092 1749.067,294.401 1749.414,294.401 L1750.108,294.401 C1750.455,294.401 1752.884,278.092 1756.354,267.682 L1793.136,158.03 L1839.634,158.03 L1776.133,335 L1724.083,335 Z M1861.171,127.841 L1861.171,88.63 L1904.893,88.63 L1904.893,127.841 L1861.171,127.841 Z M1861.171,335 L1861.171,158.03 L1905.24,158.03 L1905.24,335 L1861.171,335 Z M1925.799,313.139 L1945.925,282.256 C1945.925,282.256 1965.357,301.688 1994.158,301.688 C2006.65,301.688 2017.407,296.136 2017.407,285.726 C2017.407,259.354 1931.351,262.824 1931.351,205.916 C1931.351,172.951 1960.846,153.866 1999.016,153.866 C2038.921,153.866 2058.353,173.992 2058.353,173.992 L2042.044,206.61 C2042.044,206.61 2025.735,191.342 1998.669,191.342 C1987.218,191.342 1976.114,196.2 1976.114,207.304 C1976.114,232.288 2062.17,229.165 2062.17,286.073 C2062.17,315.568 2036.492,339.164 1994.505,339.164 C1950.436,339.164 1925.799,313.139 1925.799,313.139 Z M2102.098,270.111 L2102.098,195.853 L2079.196,195.853 L2079.196,160.806 L2103.139,160.806 L2103.139,109.797 L2146.167,109.797 L2146.167,160.806 L2186.419,160.806 L2186.419,195.853 L2146.167,195.853 L2146.167,264.559 C2146.167,293.707 2169.069,297.871 2181.214,297.871 C2186.072,297.871 2189.195,297.177 2189.195,297.177 L2189.195,335.694 C2189.195,335.694 2183.99,336.735 2175.662,336.735 C2151.025,336.735 2102.098,329.448 2102.098,270.111 Z" id="Adaptavist" fill="#031534"></path>
                <path d="M372,435 C316.771525,435 272,390.228475 272,335 C272,279.771525 316.771525,235 372,235 C427.228475,235 472,279.771525 472,335 C472,390.228475 427.228475,435 372,435 Z M136,103.909565 C136,102.176001 136,100.872813 136,100 C136,44.771525 180.771525,0 236,0 C291.228475,0 336,44.771525 336,100 C336,134.04511 318.986829,164.116581 292.998592,182.176308 C238.029265,210.650154 200.378288,267.911152 200.002834,334.002132 C200,390.228475 155.228475,435 100,435 C44.771525,435 0,390.228475 0,335 C0,296.227283 22.0662359,262.608411 54.3254969,246.016596 C102.13942,216.535174 134.321389,163.799213 136,103.909565 Z M212,471 L213,471 L213,472 L212,472 L212,471 Z" id="Combined-Shape" fill="#FF6633"></path>
            </g>
        </g>
    </g>
</svg>